<mxfile host="app.diagrams.net" modified="2022-12-22T16:38:07.889Z" agent="5.0 (X11; Linux x86_64) AppleWebKit/537.36 (KHTML, like Gecko) Chrome/99.0.4844.84 Safari/537.36 OPR/85.0.4341.60" version="20.6.2" etag="iJ5LDatH6z8tTmrT-E69" type="github">
  <diagram id="4SAIlYKvWVQqO15HVwxd" name="Page-1">
    <mxGraphModel dx="902" dy="536" grid="0" gridSize="10" guides="1" tooltips="1" connect="1" arrows="1" fold="1" page="1" pageScale="1" pageWidth="850" pageHeight="1100" math="0" shadow="0">
      <root>
        <mxCell id="0" />
        <mxCell id="1" parent="0" />
        <mxCell id="W3-m2wMLbWgh8ah4GSNx-14" value="" style="rounded=0;whiteSpace=wrap;html=1;" vertex="1" parent="1">
          <mxGeometry x="110" y="270" width="620" height="270" as="geometry" />
        </mxCell>
        <mxCell id="W3-m2wMLbWgh8ah4GSNx-1" value="Node 1" style="ellipse;whiteSpace=wrap;html=1;aspect=fixed;" vertex="1" parent="1">
          <mxGeometry x="330" y="100" width="80" height="80" as="geometry" />
        </mxCell>
        <mxCell id="W3-m2wMLbWgh8ah4GSNx-3" value="Node 2" style="ellipse;whiteSpace=wrap;html=1;aspect=fixed;" vertex="1" parent="1">
          <mxGeometry x="450" y="100" width="80" height="80" as="geometry" />
        </mxCell>
        <mxCell id="W3-m2wMLbWgh8ah4GSNx-4" value="..." style="text;html=1;strokeColor=none;fillColor=none;align=center;verticalAlign=middle;whiteSpace=wrap;rounded=0;" vertex="1" parent="1">
          <mxGeometry x="560" y="130" width="60" height="30" as="geometry" />
        </mxCell>
        <mxCell id="W3-m2wMLbWgh8ah4GSNx-5" value="Node N" style="ellipse;whiteSpace=wrap;html=1;aspect=fixed;" vertex="1" parent="1">
          <mxGeometry x="660" y="100" width="80" height="80" as="geometry" />
        </mxCell>
        <mxCell id="W3-m2wMLbWgh8ah4GSNx-7" value="" style="html=1;shadow=0;dashed=0;align=center;verticalAlign=middle;shape=mxgraph.arrows2.jumpInArrow;dy=15;dx=38;arrowHead=55;rotation=90;flipV=1;" vertex="1" parent="1">
          <mxGeometry x="271.73" y="180" width="75.63" height="69.06" as="geometry" />
        </mxCell>
        <mxCell id="W3-m2wMLbWgh8ah4GSNx-8" value="Client" style="swimlane;whiteSpace=wrap;html=1;" vertex="1" parent="1">
          <mxGeometry x="140" y="280" width="260" height="130" as="geometry" />
        </mxCell>
        <mxCell id="W3-m2wMLbWgh8ah4GSNx-9" value="" style="shape=image;verticalLabelPosition=bottom;labelBackgroundColor=default;verticalAlign=top;aspect=fixed;imageAspect=0;image=data:image/png,iVBORw0KGgoAAAANSUhEUgAAAWgAAABRCAYAAAD/5zwEAAAABHNCSVQICAgIfAhkiAAAG/5JREFUeF7tnQtQVFeax/+3G5CnICAgjIiC4vutiCgiCuIjGycaM5ONM5VK3EwmlcxsNrW1s9nZmq2tndmpmcTMI5NkMkl2NCZOzEOtqFFiREWdqPFFkKe8G2i6eTRvaLp7z+0GbJq+9/btbpqH36mysM89j+/8zunvnj733PPnVq7bZgIFIkAEiAARGHMEFGPOIjKICBABIkAEzATIQdNAIAJEgAiMUQLkoMdox5BZRIAIEAFy0DQGiAARIAJjlIBsB/2PigB84BUO/i8FIkAEiAARGDkCXnKLfljhj58ZmvEr5RR8pujB8vCpSJgcgpBJvuaiWnq6UdraghtaDTr7+uQWT+mJABEgAkSgn4DsGbQ3ONwz9YH/u2/uQqyNjEaEnz98FArzP/7/fBx/bU5wyNgCzQVhzrrN2DQ3kFnvieCD2ORNWD/dz7X6uGAs3rYHj60KE3mq643IpRuRPtvftbo8gYXqIAJEwCECshz0Z14R5kIH/qYV1gpWMkmpxMNx8WPLSSumYMG6tVga5euYE+MmIWzGHCRGTnIsvQ0N7+nr8fiOhYjydXGrOReIGfPnYlaoz2ANnG801u15Gr/4r//Ea796Gb94NBGB4XOwdfdmzPXzzO1HsPPpAhEgAm4hIMtBy62RdxNbp8fBz0v2SorcqkYmvSIGm/Z+D9sSnVhv5yZjZUYSgu6exanSbrjoom3ap0Rs+m48Et+Bix8dwP43DuFQbjnKLpzB16Yl2LYmXGSmPTKoqFQiQATcT2BEHTRvLj+TXsHWqR+0oIhYhnUJnbh+qRDt7vXOAFvyiJ8Zgua8XOTkV6CyqgIldR0w9Vbi4tdqRK9egTjlg0ac2ksEJh4Bl6e2e17/b4QGBKG9pwtrExbgZmUplGwt+gfrMsyf+cA/RMytr3OcnnIW9vzsCcRc+CNeu9Bknn1yocn4yUspUL2zH0fKArB4+05kzo9CRIg/vE1d0FYW4uLpbFys7Lw/W/UKw7Ksbdi6PA5TJ+nRWFUPvR9w/9ElWzNfswf7MuMR5u8FQ4cWJVfP4G/ZJdAZB8xVYuaOn+J3O/jPfbh16Fd497YeUIZgQfoWbFk+E9GTObSpCnH2+ClcquFnywqEz0tEVFsRPq3ur40tl8SszsKjG+cjNsQHhvZG5J16Hwe/abHYK1qeDTrOGz7eHKam7sP+VP6aAZUnX8f+HC00+YWoy1iOxTHZKKsyOM6cUhIBIjDmCMhy0N/ta8BPFi3FJIXV9CwHeDFrN3y9vfHS4T/jle//CHq2e+PXJw4POujgSZPc23DOD9EJcQhRf4WDn9VC7zMFs9ekYee+SPi98S5Oq5hT5Hwx96G9+MGyHlw9/TE+URsRHLcMmbGclYM2oa3iOo5/eBm6LiA4IQW7tuzCztrXcCBvYFnCANX5D5kj1TFHakJ3C+9wfTAray+eXNrCnPKHOKLzw9z07dj1wy1oeuUY7nZ7Y3psBEyqK1D1+0hFZDKeeHgOWrI/xe+LW8EFhsOvpb3/ZiJRXq89fCY0Xj2Cv+Sqwd9LetuazX/RWIOqzjTETmcPQqt4mykQASIwXgnIctD2GqlkznpO1HcGL00PtSxn6Lo67CV3a1x3QznyS1Rmx1RYVA+88DTS1icg53Ahev3nInXFZFSe/gMOX2q2OKryLsSsnINZg1aY0FVfijyW1RxquzBt8bNIip0KRV41m5daQm9bI+rqLTN5PoZjZacnBaHw6Dv4Is8yY685GoJ5/5qGpXEncLc4CKEhCrSVt4LNtc2BCwhAANeNwrJyVKh4j3v/F4V0ef2F2PwxdDQxuxosjnngmkmHJh0wLzSYzeN1g22wXwLFEgEiMJYJyHbQup4e81Y6qWA9c+PzjHjoq0dBWTvS42MQoShEbXgkIpU63KkUm0V6IWzBBvxD2gLMnBoIn74u9E1SwFAljkURPg3TfNgOj0dfwiu7B1rGQaE0QT+Z3/HBL0GwBRG9fnAGa6i8ji9L5uO7+55D7K3ryL1yA7dVHWbnKl2eDHpsC2Qv8//e7BcNBSJABMY3AXFPZKdt/Eso1g7aaBpcrLWT2hLF55EXTDCyYpVKhXl7m8M/041WKc3/5cBxwlvOFFFr8eTjSTBdPYX3j6nQhnCk7HkUi6yNtVe52ag2XGc7KLJV1u03oae1i9nrj142dfZiTnKw9j41Lrz3OxQkLMX61LV4/PkUbDh9EK+fY78AJMuTsZ+c8zLfHPR6eklI3pij1ERg7BGQ7aC/YW8IrmCzU353Bh/+9uP/GGzVR8/9fPD/A/E9BgP4PLKCqQOtHRymRITBC1rYXYK1LZDtcZ45Iwi9ajW0zGcaNbVQ6ddg9uxwKCvVdn/qe0XFYBpXhY+yb6G4k3lirgca/u9g0KOX+Tk/P8s+6IErRq0a9YY1iAlXQHuzwU7ZbWhuMSIoZDKzn3+E1x9MvdCUXMWnJbdwa8czeD5lOWZeUKFEqrz+vTZiN5tBk9kOjynB7I3OZt3QpQ9bXvSZCBCBMU9AtoPuYg8AT1VXmF9CEZ6bWtrNOzQ+LZ9HVjBqkZ/fgKyNGXisVolrbG0YoZFsDde6FA4h81OQqc1DBZugRy7biMzoZlw5WQyWGuhiuyouafD8xu/jSZzDpXId+nymI8LqeWWfRg0Nl4S1m5ZAd1uNNuNkhLJdHoPB2Iiauj5sWJaK1OqrqEUIAjsK2U6VAuRcTcWzaXvwQ+N5/L2CLzsY0/yb8PWNanQzR1xVrQGXFIMYZR7KmIdWhCUiJZ5DXZ0OPcpgJESwijo7wd8PTB1S5XWivZNDaPwCzAtvxN0mYZqK0BjEBrTiXnWb4788hIujK0SACIwiAWV07OxfyK2/kZ23oe3uwsygYHixLXX2Aj9z/ryqHMU6ucsbfGlsdwXb26v1n4GVa5ORmrQUS2YGoLO2AnduF6CmMwAJSSsx3dQJ39mrsCl5IWZ4qXH56Cf4vKi9f+ZohK68AGW9YZi/eg3S163E6oXT4NWkQkFeHgo1vWyVQoXydvZwb9VapKcmIWVFIqayc0aqi+7gRhW/w0IPtUqHybOXYcP61ViVGAHvhmLcqmlFY2khqkyRWLQqCRtSVmLl3GgE9aiQV9gAfv9HV3cglqQuhLL4Oop0JnhFLMD27ZuxeUMy1i1LQGhXMU599hXydfzNy4AmsfJMPWjUeWPm0pVY4n0Pl0oNiGftj268iYul1o6Ybe9blYmtEeU4cboYzdKrT/a6juKIABEYIwQ4VySv/NkbgqNyWJIiElkvPIOVRe/gl6csuzjGCM/7ZrClhrVPPYftncfwyw/z0WFvLdvdRnvH4ZEX92LWtbfw6lc2uzvcXReVRwSIwIgTkL3EYW0Rf1od/wKKrJdQRrxJY6QCtt3t2plr2PDMJmTNKsWn93pGeMnBC9HrM5GsyMN7VzS0/jxGhgGZQQRcIeCSg3a2Yi5wBX707w9jnr3a2bLF39/9DT4oGv9vwemrzuODk0Bcn/1lIGf52c+ngKmlDGc+uYyCLk9M1+1bQbFEgAi4j4BLSxxOm6HwQ1hkMHztPWVk2/Y6mzRo7iEn4zRfykgEiMCEIGBvDjvyDTN2obHOvNeCAhEgAkSACAgQ8MRvb4GqKZoIEAEiQATECJCDFqND14gAESACo0iAHPQowqeqiQARIAJiBMhBi9Gha0SACBCBUSTg0kPCUXtRZRSBUdVEgAgQAU8RcHoGzSt2jytVb48renuqC91VjycVyN1l8yiVMxHHkkPK8aPE25PVuo2DNyKXbkT6bH/JM4vEmueUg+adM39Y0sCJdvYqGHOq3nIVve01agLHeVaBfB6sz6Qad1jdOZZcVI53Gztb5Xghu5TTsePFf8PLO2ayU89HMAjVP4JVmou25eB0fez8nfA52Lp7M+b62Xvhw7GCZS9x8ArdvFK3I1Xyafi01R3fyj/RzjH7KZU7CAwqkB8fQQVyDU6w87PZ2U7w0WvYgVIUzAT6leN5/c1itQeELRzFLmQXO7hLp9GigWnEjehZXEL1S9nPHOzap17E9+bYurY+FHz8Ct68ysSVpcpwy/U+qC6cwdcrn8C2NVdQdM654xdsWyFpGq/QLTZzti1gQNWbzuuwJTN2Pg8qkP95JBXIP2MK5PdlxMZO68kSWQSMDbh48C+4KCuT5xMbys7hrS/KrM6SZydMankxDQ+G3kpc/FqN5NUrEHfhC/Oxw3KDbAfNK3RbB6dVvV1RuWYzvqUPfReZ8yIRFuyPSawbWmqLkHP8BM5X9Yu9Sip6i6CyKj+cle+DHmjLbuD8t32IX7EIidHsIP4uLQpyT+Dw+Urzmc7mIKbMLdZesWtMWVBSeZzNGhLYQUk7khMxnSmGm3raoVXX4MrxIzjPK76I2TWKCuSCMzBn+IsyZH0jxUhkOMCRsSTGWMo2CCjHC9nkDB/lLOz52RPgZ+qvXbDoa3KhyfjJSylQvbMfR8rtVWbHrrzQ4SdJKgIxOzULDyXPQUyQAr26Wpw/fABfVBrFx667uVg1wdjViPKKSvbNtQ0OfJ+ss0jZKNbv7DeGJr8QdRnLsTgmG2VV8j20bAdtT6HbGVVv11Su/RA1awaC6s/i4Ce8qncoFqRlYOfeLVD/9hgKeh1R9LbtOKvPTDXcXH5dNt47UgeDfwzWP5SB3Vtrcfn0Gfz1dC+C5qZhd9YjyKr8PT4t58GLK3MXhgireouzkFIe90Zsxl78aIM38r/8HKfZOdYIWYiHdy/GDCZcC5XX2FUgF+oCJ/iLM5RiJHircFAd3vm+tyCwpxwvBIfFO8FHpDSRS47Yxdhu3otn1itwO/sYTtR0wWuyP7qaLM6oreI6jn94GWxFBMEJKdi1ZRd21r6GA3nd4ESV7nmzHKlfyHymEcrOqr//kI2X0eNnUlLfp6HliY8r8X6/y9bxjI01qOpMQ+z0QHBVYvqo9tsh20HbFuOsqrc7VK57Gipwt5Q/D7ocJa1TMPe5JVgQo0Sh2hFFb9uWDP/co6lCURlffhWaw+azm4AGd76+i0J+7FUACcsfx6y4KVCUa2GSUPou0ouoeosofvMDSlR53HcO0lMioMl5CwfO1ZvltbjAUKSZFpsbJK0YPooK5MORD4mRw19sPEGCkZgZPD8pdXgpxmJ9P1C3rXK8mE0D1+TwEbkFiVY1zC7bbQV+idiUMhV1Z/+EQxe0w9alxcYuRMe9xSzb+pUzsvDys2vB1OZsghGq7Dfwmy87zPHeC3bh1/+7azCNseECXn31S1QxJy1mk+0cV2xcSfX73UImxsGOHW7SAfNCg9nNQmdHHs+2HUM/y3bQ7lL1drfKtampEU0mPwT4szunQ4re4mCGXjWiVccUViYFINCHXeHPeTK2o4U98Ir38zUnlVLmNt4QVvUWY8GkZ0WVxxURMfiOTyvySzR2O1/KrlFVIHe4C6T5izGUYiRmhiNjSYqxWN+L1e34NWk+jpclL6VyarR5/OWVNQ9zzlJjV6zPhKww1F7CW7+7BS87uxT0bY3MBsv30XDvLP54opRpIlmCSd8GtfkuJf59sq1XzEapfufQB5OpD71MVNWbCUg7E2Q7aLeperukch04rK0mJgNuYHtLFHzHmdeExRW9hxUgEWFgEl5sMZeVP1CBAXwUL+RqHivmaBGl774OQVVvvQgLg4TyOMfxP+NY260Vza3bImXXaCqQSzC3vizJX4ShUYqRmB2OjCUpxmJ9z9fthidXknxYJewrAqVSYRmqYm0euOaIXebvg/2gkBi7EOkzs2O1Vz/vaOvYzEgo9Jtj7G5GTY1q2Bq0pE225YrYaJTqd74szgs+zDfr9TJ1WfvtkO2g3arq7aLKtS3Lgc+OKHoL5XU2Xlrpm5Us0N5i3vcLXKuQUB43NmqgMa5miubBbI2rediYlrZrFBXInYUtlE+AYYkEI6Hi+HhHxpI0Y+H+LWZzPHvK8WI2OXXN1IHWDg5TIsLYHFJrtbthaGn3leMds8uorUd9XxLiZ7GlvqqhSxxeEmPXXLNAnwlxcXSJQ4iRQzaxzPc5CNtYolWj3rAGMWy9RXuzwe4vWLAXX6YEAy3NOju/MISsvB8v20G7S9XbJZVriXaZHFD0lihC9mUpZe7eUGFVbzEWUsrjfL25dzbiqU278UhPDm41AGHzFiKGrdEV82NLUjF8lBTIFdHY8c/7sLbyA/z84xL7g1tGL4gxlGIEEVscGUtSjMX6HiYB5fjqKdjuRj4wapGf34CsjRl4rFaJa7VsnS40EgEDE2CmZDREOb5RyK6hnWJiKvfnmML9jzd/H3u5HFyraoPBNwQ+TfnI16ih4ZKwdtMS6G6r0WacjFCrN5TE+kyQi4NLHEJDR+r7BBsOhaY4rI3nUFenQ48yGAkRrAGdneadW1L93s3SKEJjEBvQinvV1uLOQtYNj5ftoPkieKXuYxX3zC+hCO2J5lW9T1VXCKp6KwMjsYQpXD8c5g8vAzvAX1WET49cAr8rDOyHScmJv+LtDqZQvWobnsqYBHTrUHsnG7dvVDvwkoMeldkH8GZnBrYlb8XTm32h6OtCi6YStxv6t+ENZ+FijLjNBpH2eolcM6lycfBoEHanbcW+lElQGHrRydbaKhv793SyAfXt0fdxuHcLNmbsQYq/Hhr2tNjA5tIm809Ecbu62X1dW1AIdcZSLOrfCuRS35hacP3Ly1j4yErsTCpE4Sm2AGcvsJ9+3t4mdLS758UBcZslGIna4shYEmcs1vfs246bJz9H/GNsrO6dB2V3EwrO1DDlePfyYb8FoMo5gkP+27E1fRdW+Cmg72pDU1U5atp5b2PTbyeq7dtVbduZPSg9eQBvd2ayFzIewlNbvNnjGS1unSjDtzfFx65Un9nlUqlxaInD1sqBz0bJ79NQDr/91hU/pUDY/LmIbi3CUZXt40chC4fGuyR5RYclOQbZ06kUEan4l58uR8mbf8BRR/ZejoICOee3BE+/vAUd7+/HB4UDj3I8R8qa0THNwlG1xV6rR5uPPZsoTiYB7zg88uJezLr2Fl79qsEzSxzWJpKqt8wOG5HkCkxblIQ4Tgutjs2H/aZiUVoyoppu4uNaB+/aHlcgZ8/SY2IQ1ZKHD+95wjmLM/KK86Qtjg0Cz/JxzCZKJYeAF6LZy2PJijy8d8W517z52lyaQcsxdyylnVCq4pw/Fmz7HnYujcQUtgeQ62lDXdkdnDmRgzuNcp4c+2BGygbE1eTiQqVnXolVsB0FRoOzO3RljCgHGHnMFhlmj0WbZJj/gCf1wbTlqVjYfhlfFncOe3jvKJwH0kGDVMUdHR+UjggQgVEk4NRDwlG01z1Vk6q4ezhSKUSACIwogWEvTI5obVQ4ESACRIAIOEyAHLTDqCghESACRMCzBMhBe5Y31UYEiAARcJgAOWiHUVFCIkAEiIBnCbj0kJBeVPFsZ1FtRIAIPFgEnJ5Bj0lVb7cp8npqEJCStqdIu68e96g1u88eKmkiE3DKQY9ZVW9bRV4hZeAxokxMStrj8avlHrXm8dhystnzBGQ7aGdUvfk8oxL6lYG3JQYMrd7DysTD6uetGVTSPjuCStoduMiUtPe/cQiHcqscOGRqVHppnFXar9ZsWsIOBwq3klQaZ80gc8cFAdkO2llV7zFFo1+Z+O2LFomo0bBtUEn70kgqaecyJe0KVFZVoKTOPafGjQarMVdnv1pzNK/WrBxz1pFBE4iA7Kmt+1S97ytzO6ycPWGUiQ0In5eIqDZ2xGp1/3kZLqkH24xIzpupOHCYmroP+1P5awZUnnwd+3OGa8YN5nRGKVrKZleUtMXy1vpjfsYObFk8HdNC/eHd1447x/6M//uGnbmrCEJiWhZ2rGEK04EmtNaV4NKpL3C2tM1ympjUGCoLwOLtO5E5PwoRIaxsUxe0lYW4eDobFysHzlRwXa15AvkQasoIEpDtoN2l6v1gKxP7YHpsBEyqKxg4JtYl9WC7Ry6b0Hj1CP6SqzY7pt42e5pxViPLCaVocZtdUNKGRN66AMTOT0RY4zl2VnYlutjZKkYN/wvBGzMy9+KfUoBvTn2C42pg2opNeOjJJ+D95ts4OXAzFPtCMQ7RCXEIUX+Fg5/xivFTMHtNGnbui4TfG+/itMpyQ3VVrVnMBLpGBAYIyHbQtuicVfUeKOdBVCYGm+WFhijQVt46KGrpknowL51iJxg6mlBXL+8cWjn9IWazK0rajuU1obv+HvLNqu6WwPnNx6bkcNQyhenDly2/FkrKG+Eb9SzSUxNx7lC+We/XkdDdUM6EeC1lFxbVAy88jbT1Ccg5XGjRuXNRrdkRGygNEZDtoN2l6j0c/YOjTMw0fs1Ckn16/eAxhK6pBw+n6XqMdH+I2iyhNi5mn7Mq3AqmMB1jqzBtbEJpeRu2zo3GVEU+qsQqFrrWV4+Csnakx8cgQlGIav6O4KJas1BVFE8ErAnIdtBuU/W20w8PjDIxk2PvZefUezEp9kFNZJfUg0Ps0HQ9SrI/RG2WUBsXMU9SqVwwr7DC9P0sTqhb85ltVdNdVGsWbAJdIAJWBGTv4uBVvXm9wYHwtx//x+D/P3ru58Pi+bR8HreEIcrEwiUKKRML5bAoE0+2KBPbJBpQAc7NvoXimgbUqVTQ8IqR1mFAmfidP+GN3A528P1yzDQ/3R+qjDyYxThUSXswXqAci2p0gEU9uEEL9eC/RrR03z/wfogSsU07RuyjkM1mJe1gi9q4zMotSuXy81oUuG36URGK+Lgg9NbWMnuYIQ6OoSEmK6awdrAy1GpoB9dTXFNrlomEkj+gBGTPoN2l6u0U74miTFzZg6pqDbikGMQo81DG7ndiCsfS6sE2isxNAnRF1KsFcohGS9kspjYuqqQtoVQuZBSvwP0VW3t+Pn0PHus9i+tqzvyQMDNKg3NHiy3rz1JjyFw4h5D5KcjU5qGiBYhcthGZ0c24crK/DJbCVbVmoTZQPBGwJiDbQfOZ3aHq7Vw3TBRlYrZ1i5S0hVW9JZXKhUaPHhVn3sfberbNLm03VgUCbXXFOPMe22ZXPaB9KDGG+ovWG/yRmM6224V4oUtTjouHTuLkvYHtMq6rNQu1gOKJgDUBlySv6LAkFwYTKWnLUtKWrVTubNcoIpH1wjNYWfQOfnnq/g6RIcV5u67W7Kx5lO/BIuDUDHoAEal6uzBYSElbRNVbXIXbBepuyOoetWY3GEJFPAAEXHLQDwCfEW2ivuo8PjgJxPXJflbrlF360pP4n/28krZT2eVl4nwRGjsP6UPUxr/BX4/koJx/10PMFqm88ixxc2oFTC1lOPPJZRR02TwsdnNNVBwRcGmJg/ARASJABIjAyBHwzNRt5OynkokAESACE5YAOegJ27XUMCJABMY7AXLQ470HyX4iQAQmLAFy0BO2a6lhRIAIjHcC5KDHew+S/USACExYAuSgJ2zXUsOIABEY7wTIQY/3HiT7iQARmLAEyEFP2K6lhhEBIjDeCZCDHu89SPYTASIwYQmQg56wXUsNIwJEYLwTIAc93nuQ7CcCRGDCEiAHPWG7lhpGBIjAeCdADnq89yDZTwSIwIQlQA56wnYtNYwIEIHxTuD/AdfQXG8jy3BaAAAAAElFTkSuQmCC;" vertex="1" parent="W3-m2wMLbWgh8ah4GSNx-8">
          <mxGeometry x="5" y="50" width="250" height="56.25" as="geometry" />
        </mxCell>
        <mxCell id="W3-m2wMLbWgh8ah4GSNx-10" value="Server" style="swimlane;whiteSpace=wrap;html=1;" vertex="1" parent="1">
          <mxGeometry x="430" y="280" width="290" height="200" as="geometry" />
        </mxCell>
        <mxCell id="W3-m2wMLbWgh8ah4GSNx-11" value="" style="shape=image;verticalLabelPosition=bottom;labelBackgroundColor=default;verticalAlign=top;aspect=fixed;imageAspect=0;image=data:image/png,iVBORw0KGgoAAAANSUhEUgAAAUQAAADGCAYAAACq5fmhAAAABHNCSVQICAgIfAhkiAAAIABJREFUeF7tnQl0FNeZ7//VrX1BQhJaIyEk0Mq+CRAIsYjNePAixMRjkvjYjOP4eJLJOHNeXibzMmdOkjOTyeA4sR3HIY5ZbGJiDNhAQMYILMBgdlloA620tpaE9q3V3e9WL1q7qnqp6vXWOTb0rbt83//e/ri36vb9MUtXb9OCXlQBqgBVgCoAGdWAKkAVoApQBfQK0IBIRwJVgCpAFTAoQAMiHQpUAaoAVYAGRDoGqAJUAarARAW8xBYkwMsLiyNmYPa0UIT6+umq7xwaxP3uTtxsU6J/ZETsJml9VAGqAFVAFAVEXTKnhIRiT9pcrIqKRaR/AHxkMt1/7N/ZNPYem8fuFxOMlNUbsSEtCIxdGvdBwsoNWBPvb1t7TAjmbyvArmXhPG+/vBG1cB3WzwmwrS276EIboQo4twKiBUQ20O1ITIavXM7pMXuPzWP3oCibjszVq7Aw2s+8oMH4InxmClKjfM3LP8lj7/g1eGb7XET72bijiQnCzIw0JIX5jLbA+MVidcEL+Nl//Dte++VP8LOdqQiKSMHW/I1I87dPuOfsYHqDKuDiCogSEP3JMnlrfKJZwYP9yrJ52TJOe8nisGH332NbaqDlJjLTsDQvC8H3zuH0/UHYGBIntS9Hwvp8PJXchy8+3I+9bx3CoeIaVF88i6vaBdi2IoJnJmm5K7QEVcDTFBAlIC4hzwz5ZoaTRWXzsmXc8ZJFLsLq2f24fqkcveJGQ4AsoZNnheJRSTGKSmtRV1+LqqY+aIfr8MXVFsQuX4JE7gm6O8pNfaIKiKqAKNM09gXK+Kvgjf9EWGAweocGsGp2Jm7V3YecPEv81uo83Wf2YssUNzdNdEaehIIfP4u4i7/Daxc7dLMrJmwlvv9qNhT79uJIdSDmP/YENmVEIzI0AN7aAbTVleOLM4X4oq5/bDbmFY5FW7Zh6+JEzPBVob2+GSp/YOx1DnmuuaIAezYlIzzAC+q+NlRdO4u/FFahS2M0SY5Z23+A32xnP4/g9qFf4k93VIA8FJnrN2Pz4lmIncagR1GOcydO49JDdjYoQ0R6KqJ7KnC0wdAaWX7HLd+CnesykBDqA3VvO0pOH8SBG516e3nrmygPGG/4eDOYkbMHe3PYe2rUnXoDe4vaoCwtR1PeYsyPK0R1vXpSQfqRKkAVMEcBUQJiiK/vlLZ+uCUfft7eePXwH/Drb34XKvJ2+b9OHh4NiKbKTKlkcgLjj9jZiQht+RwHPm6Eymc65qzIxRN7ouD/1p9wRkGCEOOHtMd341uLhnDtzF/xUYsGIYmLsCmBGRcQteipvY4TH1xG1wAQMjsbT29+Gk80vob9JcZlrhqKCx+QwNVFApcWg51sgPNB0pbdeG5hJwmCH+BIlz/S1j+Gp7+9GR2/Po57g96IT4iEVnEFCkNMkkWtxLM7UtBZeBSvV3aDCYqAf2evIXgL1Dc8WQD2sxbt147gj8UtYGP3cM8j3Z9of4j6/lwkxJMXR/WszfSiClAFLFVAlIA4uVG5TI6U6G+MJseH6ZfHXQN9k7Na9XmwtQalVQpdICivaAb+6QXkrpmNosPlGA5IQ86Saag781scvvRIHxhqBhC3NAVJo61pMdB8HyWkqO5qHEDM/JeQlTADspIGMu/SX8M97Whq1s9U2RSG1L0+Kxjlx/bhbyX6GenDY6FI/9dcLEw8iXuVwQgLlaGnphtkLqm7mMBABDKDKK+uQa2CjXBjs2Lh+gyVTPpD3ddB7GrVB0LjPW0XOrqA9LAQMk/tGvXBdA00lSpAFTClgCgBsWtoSLe1RugaP2thy4hyjTSjrLoX65PjECkrR2NEFKLkXbhbxzdL8kJ45lr8XW4mZs0Igs/IAEZ8ZVDX88shi4hBjA95A73zVfw632g9A5lcC9U09o00u6QlC2yVanSGpq67js+qMvDknpeRcPs6iq/cxB1Fny6YCddngULaEQyTeOtNZuX0ogpQBaxTgD8CmFknu+l6fEDUaEcfxHHWwJaZemmhIUXlcpnujbXZyz7NuJy6vzJgGO4tKLLoVXjumSxor53GweMK9CAC2QU7MW+8QaYa1xnVg+vkDW+hYryPWgx1DxB7AzBMpoZeJCiNtj7Sgovv/gZlsxdiTc4qPPNKNtaeOYA3zpMZrmB9FuzZZLx0wVilohvfp44rmkIVME8BUQLiDfILlCVkZmZ80/yX7/3baOsfvvzT0b8b04fUarBlplzaPnT3MZgeGQ4vtMHkI7TJhcgew1kzgzHc0oI2EqM0ykYoVCswZ04E5HUtJpeOXtFxiGHq8WHhbVT2k8jHDEHJ/jl6qTBM4oq/v34fovGOpq0FzeoViIuQoe1Wq4m6e/CoU4Pg0GnEfvaVh+HSDkNZdQ1Hq27j9vYX8Ur2Ysy6qECVUH2GPQB8wX3UZPIGenoI+VXQo66JS+nJetHPVAGqAKcCogTEAfLC5HRDrW7TNfe8TG8DG1zYvGyZKZemDaWlrdiyLg+7GuX4ijzbQ1gUeQY3PieD0IxsbGorQS2ZZEYtWodNsY9w5VQlSG5ggLz1vaTEK+u+iedwHpdqujDiE4/Ice99RpQtUDJZWLVhAbrutKBHMw1h5C306KVpx8OmEaxdlIOchmtoRCiC+srJ2/IyFF3LwUu5Bfi25gK+rGXrDkFMQAeu3mzAIAl89Q1KMFlxiJOXoJpERFl4KrKTGTQ1dWFIHoLZkaSh/n6w8VfbJ1RfP3r7GYQlZyI9oh33OqYoNpogC4tDQmA3HjT0mD+z5q6O3qEKeKQC8tiEOT8Tw/N28nvltsEBzAoOgRfZYmPqYmeGn9bXoLLL1HKZLUHe/pK9dW0BM7F01UrkZC3EglmB6G+sxd07ZXjYH4jZWUsRr+2H35xl2LByLmZ6teDysY/waUWvYWakQVdNGaqHw5GxfAXWr16K5XNj4NWhQFlJCcqVw2TVq0BNL3kZsmwV1udkIXtJKmaoH6Gh4i5u1rNvgFVoUXRh2pxFWLtmOZalRsK7tRK3H3aj/X456rVRmLcsC2uzl2JpWiyChxQoKW8F+356YDAIC3LmQl55HRVdWnhFZuKxxzZi49qVWL1oNsIGKnH6489R2sX+g6BGB1992iG0d3lj1sKlWOD9AJfuq5FM/I9tv4Uv7o8PfGS7z7JN2BpZg5NnKvFI+ImFqe6haVQBj1eAEfvEbEkPd5BFYcs/vYilFfvwi9P6t8xO14Nk6brq+ZfxWP9x/OKDUvSZehYpttHeiXjqh7uR9NXb+N/PJ719FrstWh9VwI0VEGXJPF4f9jQbdsP1lE3XbiziBNfI9pevzn6FtS9uwJak+zj6YEjiJawXYtdswkpZCd69oqTPDz1lnFE/JVFA9IAoiZUuVqmq/gLePwUkjph+dCCuOzJoO6tx9qPLKBuwx3RUXOtpbVQBZ1JA9CWzMzlHbaEKUAWoApYoYI8pjCX20LxUAaoAVcBhCtCA6DDpacNUAaqAsylAA6Kz9Qi1hypAFXCYAjQgOkx62jBVgCrgbArQgOhsPULtoQpQBRymgOjbbiTdmO0wmWjDVAGqgCcoIOoM0Wmpe57Qky7joz2JhM4kCqUjOlNvcNkiWkB0auoel/c03e4K2JdImI7xZ3bY3dkJDZLftVM6omO7wIzWRVkyW0Pda+j72vSJN2YYTbO4qAKjRMITEhIJlThJzqskZ1/AR6UkB244yzUCBUtHXPosoSNeQcV5+jNLZ+mZ8XaIMkOk1D1n7Frns8khREJnkoHSEZ2pN0zaIsoMUTTqHplBCFL1CLw9I287Ns+PR0wYIe+N9OLu8T/gzzfIcViyYKTmbsH2FSmIC9Kiu6kKl07/DefIdGH0RCxZEObkbMHjK0meYBmGuxpx4fB+/K2OHMfFR8Djo+fx3TMpuyGR+Lvw8SexKT0KESEBBGE1hLbqm7jw9QiSl8xDaiw5aHagDWXFJ3H4Qp3uDEXdJYmdZpAIifazyUES21emIp4QBLVDvWhreYgrJ47gAnuCOJ9dDiQScp6GZo3+Qn0toBGlI/J9IRx/T5SAaIqgZxV1zyyqXiASMlIR3n4eB47VYUDmT07JJmxiwjOZuWk3/jEbuHH6I5xoAWKWbMDjzz0L79+/g1M6LKg3EjbuxotrZLhTeBwnHw7Aa1oABjrYs635CXjlodz0PH6yHk8nE3+jk2YiuKkQ7x5pgjogDmsez0P+1kZcPnMW750ZRnBaLvK3PIUtda/jaI2UdgqRCIl2ebvx3bXeKP3sU5wh50YidC525M/HTALWgsLLeYmEXF1ghf78fS2kkQYaSkfk6g2nSBclIE72xFbqHh9VT4+mIljQ5gcovT92JiLjn0EOjI1A47k3cfhym25GWFXTDr/ol8ghsKk4f6gUA/6p2JA9A00kz6GL+jxG24UIeBUqHnoeD1lvsjamPg8p61FRzfpSj0fhGcjMVeLu1XsoZ+NfLWFYL34GSYnTIatpg1aA/Ge9nQIkQr8UrM+OhLLobew/36zDIzBBYcjVzte5JKSfQ4mEpkQfl2aJ/nwURQhopGuS0hEFesOxt0UJiJJS9yZR9Ro49JLNiEWcTzdKqg2cYjafpgP3a3qwlZxqPUNWCgXJ843JeQz1CRHwNDe56Xl8ZD0OczmSNejuIid2+wYiyIdkYZkIml50khcEyf5+ujLS2clPIpRFxum0K61SmmDJCNvlUCIhh9pTk4X15+trIY107VE64lTZnShFlIAoHnWPQ5nxVD2OLCxpT/DiIfHpMX88RL2RPk56noqHrGfkMwvaZsigJpgF8jAOMp2t7ENDNdgkFjSl81CI1GelnWoBEiHDyMhTQA3UXH0hZJcjiYTmis+qLaQ/T19rhDTS9R+lI1rQHXbPKspbZpagx/JSjJfV1D1T7k+i6pnKwqbpaXvTkJxElpbGTLIwJCcSIl9jI5Qska+tGc0jk/IY8uqJeoF6ol5rG1pG/2tH56DhsbyRnrfvTbxV3IeZLD1PbqiA7x6X0VakS2WnkURYzJIIH7aiSaGYQCLUtCuJhiGEcBhi8p8eQbs0E4mEo65z6CZYn6ECs4iEVujMW4TLZgGNdHVSOiKvtI6+KcoMUTTqnn7E8FP1OBTTEtre5+TZ4SvrC7Br+ByutzC6lyqbopU4f8xA5CPkvPOEmve9jd/EbqYIX9X3QO0XCp+OUpQ08RPwhsO46Xl8ZD0Oc61OFiL1WWunEImQbbf47jo8vyEfTw0V4XYrEJ4+F3HkX59K4o2QXQ4jEspisf2f92BV3fv46V+rTC73LekMvr4W0ohth9IRLVHb/nlFCYis2SxJ73jtA2yNTxzlM092h51FsghSbuqevoRKHYDU9U9gU6gXBpQ1+OLQKZx6IERpVqH27EG8oyLbbnLzsSwI6GmqxNl3ybabBuPCdQj3T+3HO/2byObYx/H8Zm/yiK4Nt09W4+umblSdfA/v9BF63bJteD6PcEsHu9B4txB3CGJUHRSFBYSctyM8AF7qAbQrKnD0yCWwu028eO5N1sD2z0OS2KlVFJO39sHIz92KPdm+kKmH0d/Tjrr2AT0ThpAOvz52EIeHN2NdXgGyA1RQ1neRAKOFVrcdiN+uQbLcbisrR0veQsyLK0R1vRpyXt0E6tN24vpnlzH3qaV4Iqsc5ac5xgdZonp7a9HXy+5EsP3it1lIIxnCM9IQ212BY4qxFZXtVtEaxFJAdISATYc7uAJVTyzl3aAeWWQO/uUHi1H1+9/iGAlwgpcDiISM/wK88JPN6Du4F++XW/pEV9AjwQwTNGqKp3REQcUcm0G0GaLRDY+n7jm2PyVsXYaYeVlIZNrQ1kXme/4zMC93JaI7buGvjWYEQ9YyuxMJyew9Lg7RnSX44IE9giGfRgxicygdUcIBKkrVogdEUaxyk0qYoCX47v/dgXRTKpMl6Jd/+hXerzAzmDhaE8YPYQnpWL8wCtPJniBmqAdN1Tfw3pEi1LB73s287EskBFT3T+Hne8n7cXvIzKsRCZaUjmjmKHFcNtGXzI5zxQlbJr+iCY8KgZ+pHUFaDfo7lHg0JMaTLSf0nZpEFXBBBUzNXVzQDSc1WUNevjSxu6vpRRWgCriCAqLsQ3QFR6mNVAGqAFVASAEaEIUUovepAlQBj1GABkSP6WrqKFWAKiCkgCgB8R9kgXjfKwLsn/SiClAFqAKuqoAoL1V2yALwY/Uj/FI+HR/LhrA4YgbYQ2NDffUntHQODYI9AOIm+c0zu0+RXlQBqgBVwBkVEGWG6E1+7v+AHGvE/rknbS5WRcUi0p+cAC2T6f5j/86msfdYGBW97KmAp1Lu7Kmxo9uiRD+xesDmgPixV6TOFuOfueWNnLb5yuXYkZhMgyKnQlbcIEfah89MQWqUr8lTaDyXcmeFllxFBDTmKma/dEr0E0trmwOipYawe5TZAyBYUh+9RFBAFocNu/8e21JNPL8dpdydk5By14cvCOVu71uHcKi43okodyJoa6yCT2MRm7G+KgPRT7uAHFoSMXb8nfUVemxJuwdEVml2psiS+uglrQIeT7mTVl7nqp0S/UTpD0mmaQVv/CfCAoPROzSAVbMzcavuPuTkWeK3VufpPrMX+9KluLnJMieEqHrjKGrhhGLni2F0Nlag6MRJXKgf5D/+iY/mx0uTIy4Qkl9y9kY8tiIVCWH+YFR9eKRsxt1zH+OTewQJIE9CwY+fRdzF3+G1ix06O5iwlfj+q9lQ7NuLIw/ID2352hAivZETtmdt/wF+s52VcwS3D/0Sf7qjRkR6KqJ7yDFlOsAW26gv4pZvwc51GUgg1Dx1bztKTh/EgRudem34bNDXMPZ/xhs+3gxm5OzB3hw2WY26U29gb9FEVs2EYm6nMc+BEZToN3nEuMRnmwPikyOt+P68hfCVGY+OJn4XAVZR93glM4OqZ6SoNZ/DgY8aofIJI8CmPDyxezNa/uc4yvSEKtOtMFw0P34a371BYheh0b201g+VFwrxXnUnafcbWJufizmRfmDYgGi6xXGp/G3wEf/0laihuPABCWxd7OmEGOxkA6AP4hMioVVcgfHoPX5iHL8N90weN6hF+7Uj+GNxiw7qNdwzjmdjyme309iUk4Y0SvTjEcd5b9kcEE25Zit1z1SdDEvME6LqGQoOtdbino7IV4Oq7ulIe3kBMuPkKKsWOvLEBM1PgHJXVkfsWhWJ1vNvY1+hnkYH+QjSSfAlZ9SadQkR6/hIesYGhslhrk3N+tmnLo3MpsMIHrSnphvGeQwfMU7IhnvssdgmLnVfB2m3dYx7bSLPxCQ30ljQV3JsrgVERb7+oUQ/M8QWIYsoAVFS6p7BSXOoevUmBNF2tKND64/AAFNHzpgoMClJiHIn19H+ulBSaZpGJ9yCMLGOj/jHXT+7pCULaJVqdIbKS4yLiEGMD3ljvfNV/DrfWCsDmVwL1TTTb7C527bsjutqbImflOhniVqOyitKQJScuqdTx7qAptUQUhwpK7OuuDDlLkqHmyPH6PMtjLUgZkAul+mheZN7W4hYx0fSY+sy2fQIhsnU0Mub3R1quHiJcWw9PNRBSLh/VMh/p9V4ckfyf6ZEP359nOGuKG+ZJaXuGVQyh6onhaBC9Df2fouapdGFcodsbR+6+xhMjwyHqX+BhNrQ+cVBeiNHoGKYPDL09580i3Mhyp2Q/06rsRQDjqOfhaiHOlMo0c/mHjH1/bS4UnGpe6abN4uqZ7qoTamCNLn+cly8sQ4vbtyJXeqLuNmqRmjiYmQGMzrOvO7StKG0tBVb1uVhV6McXzWSO2FRCDRM3YTa4CPpQduOh00jWLsoBzkN19BIZnJBhC54q24I9Q1KMFlxiJOXgH18KkSMKyJEwpdyC/BtzQV8WduFEZ8QxAR04CqBbA2SE757+xmEJWciPaId9zo4ZLWCcifk/6DTamwAcHFIYWmyUP/wUQ/ZtijRz1LFp+YXJSCy1YpJ3ZtqJptiDlXPdEnbUoXob4Mo/2Q/9qu2YevGfGT5qdBe34yRkfHrWA0URUdwKOAxbF3/NJb4y6Aa6EFHfQ0e9rL5+NvgI/4B/bh16lMk78rDtt3pkA92oOzsQ9yuG3Ahyh2//4Na59XY5NMKKwccJfpZKZyIxURHCNhE3RPRMYdWJU/Akz/6DpK+fJN/X57URroz5c5ZNJa6D3nqp0Q/HnGsvCXaDNHYPqXuWdkTUhRze8qdFKI5a52U6GePnhE9IFprtNSEOqnrt9Zvqcu5NeVOavF46rf7eKJEP57eEO+W6Etmq02TmlAndf1WO04LuqQCdDy5ZLcJGe08AVHIUnqfKkAVoApIrIAo+xAltpFWTxWgClAF7KIADYh2kZk2QhWgCriCAjQgukIvURupAlQBuyggSkCk1D279BVthCpAFZBYAVG23VDqnsS9RKunClAF7KKAKDNEj6bukV+DzN9WgF3Lwp2IZWFP0h4lvtnlm0obsYsCNgdEj6fukWPxZ2akISnMxy4dZk4j9iXtpSIoIgVb8zcizd/aM9bM8YrmoQpIr4AoS2ZLzGS/Mix1r6Hva7Cn5NBLZAVGSXsnJCTtKXGSkPbu9xBQgUqJ6vY+XF36LCG+XUHFeaUFp2eL7DutjipgowI2zxCtaZ9S96xRzbwyDiHtUeKbeZ1Dczm9ApLMED2Ouje5m3npdTJErijAnk3JCA/wgrqvDVXXzuIvhVXoYklNNpHxZA4j7SlLy9GUtxjz4wpRXS/ErpksGP1MFXAOBWwOiB5P3ZtCoxOg1w1q0VN7HSc+uIwuck5syOxsPL35aTzR+Br2lwyCiVqJZ3ekoLPwKF6v7AYTFAH/TiO5T6hub8eR9tofor4/FwnxQWDqWfofvagCrqeAzQHRlMueRN2bTKMTpNeVj2Cg+T5Kmg3KkdOzY+a/hKyEGZCVNACBgeQkbXIganUNahVstB1jVwvWXelA0h45aqyjC0gPCyFv27sIx4ZeVAHXU0CUgOjJ1L3J71WFCHJs/rDMtfi73EzMmhEEn5EBjPjKoK7Xd4VtZDwHkva0BGpF4rc3gVrRiyrgqgqIEhA9mro3mUYnQJBjolfjuWeyoL12GgePK9CDCGQX7MQ84wiyiYwX4DjSHuOlw56qVHTngKsGA2o3oVSKIQJL3VsSEQX27TF7/eV7/zZa7Ycv/3T078b0IbUabBlLLj11LwvJSdMhq2/Tb+2QhSE5MRjDjY1Qsi8kJHhnrifCrUBchAxtt1qnLgUNbTKMfq4olN8nOg4xTD0+LLyNyn7ypI0ZgpL9c/xlJK9V3cbt7S/ilezFmHVRgSpC+GtW89hCwuujTg2CQ6fpOnZ02WptfZN84+0vSnzjlYfedA0FRAkhRuqeOQ/S2TynG2ot3oNopO7Frie/ClmVijnJacjJL8CmaCUuXKwcI9yJrLueCPcIUSyNbsMCZCQnIiV9AdYuiYefbjY4nkbnC/SVoegad/4RZQuUTDxWkbrSEmIQFxeNMP8xo1ny2prlaZgdH4P4xCTMjiQ3+/vBxkxBWzCsJ+3FsaQ9fZ021TfJt8mPB8ZLbSS+1TX00BcqIo9BWp39FBBlhsia67nUvU5c/+wy5j61FE9klaP8ZAOqTr6Hd/o2YeuybXg+jwTJwS403i3EHRbnqSjGgWPByM/dij3ZvpCph9Hf0466dj3Skp+8JkCnI/PmtrJytOQtxDzD9heb6tNO8u30lFfqhpEqQzj5tU5sdwWOKejrFPt9fWlLYisg+onZlLondhdZWJ8DSHvwTsRTP9yNpK/exv9+3kp/qWJhl9HszqOAaDNEo0uUuufgzrU7ac8LsWs2YaWsBO9eoT/bc3Dv0+ZtVED0gGitPVJTzKSu31q/pShnX9KeDNrOapz96DLKBsx5iiyFx7ROqoA4Coi+ZLbaLKkpZlLXb7XjtCBVgCrgLAo4zQwRmgG0N5Hfskl1SV2/VHbTeqkCVAG7KSDKthu7WUsbogpQBagCEipAA6KE4tKqqQJUAddSgAZE1+ovai1VgCogoQKiBERK3ZOwh2jVVAGqgN0UEOWlCqXu2a2/aENUAaqAhAqIMkP0aOqehJ3jfFXbk+bnfN57hkWeTVG0OSC6PXWPHOkfPjMFqVG+4DvcwC2+LAK+2pfml45xZ164hbw6JwQ0dryjWnh5MEXR5oBoaQcaqXv+XqKs1i1t3vL8sjhs2P332JYaaHlZVyvB5+soze+chDS/PnxBaH573zqEQ8X1GHQ1/cyxl09jc8pLnmcEiotncVW7gFAUI6Q4UU9yD2xpwO4BkTWWUvds6TLHlHUIzc8xrtJWPZiiKMk0TTLqHoHCzyYHCWxfmYr4UB9oh3rR1vIQV04cwYXGAGTkbcfm+fGICQuA90gv7h7/A/58ow8zeCl307Dw8SexKT0K4SEB8CVnCnY2VqDoxElcqB80nO0nx6ztP8BvtrPflRHcPvRL/OmOivuLQ+w0bQs5K5CXyEeqlAUhOXsjHluRigRyUCKj6sMjZTPunvsYn9wjsCl5Egp+/CziLv4Or13s0NnHhK3E91/NhmLfXhx5QI7f4mtDiOoHU76qHUbzY8/9NXm5ncZ842lsjEaQMeqDIbRV38SFr0eQvGQeUmPJgcADbSgrPonDF+p0Z2cK0hv5vksKDTyVomhzQLQndS8hbze+u9YbpZ99ijP1vUDoXOzIn4+ZoWSi2xSIhIxUhLefJ+cN1mGA/HZZo+wjAYOfcqdl/BGdNBPBzedw4KNGqHzCkJmbhyd2b0bL/xxHme5EfDUUFz7AgRssTU6LwU6BY/IZLluEqXkziY8vrfVD5YVCvFfdSez5Btbm52JOpB8YNiCajA7jE/nbKA/lo/px+erjOJofl79upzGXo2xwM4zRpkK8e6QJ6oA4rHk8D/lbG3H5zFm8d2YYwWm5yN/yFLbUvY6jNWrIeOmN3uD9LpGAqPFQiqLNAdFUN0pB3YNfCtZnR0JZ9Db2n298MpxRAAAZC0lEQVTWHY/PBIUhVzt/nAkkWDU/QOl9xYQz+fgod8bjTIdaa3FPV64GVd3TkfbyAmSSY6fL6vTVD5NDXJua9TMyUz5PTZtqixA1r6wuFRtWRaL1/NvYV6j3EfIRpA8BQVMbMJki1EaFipvqZ6xwiq8yB9L8THppTHQjjXn91N8cUtajopodo/V4FJ5B/uFW4u7VeyhnB3EtMHvxM0hKJIiNmjYwPPRGs75LHkpRFCUg2oW6FxmHb/h0o7RKOZVrwjuYvBDOQ7kzVVTb0Y4OrT8CA8R9ryxE5JPPiEWcTxdKKi31ccwLoTY0N6/js6oMPLnnZSTcvo7iKzdxR9EncKirA2l+pjqIJ03If+fVmMepKbc06O4iqwXfQAT5kJvsmSiaXnT2AMn+frrcvPRGc75LHkpRFCUg2oO6xzAy8sZLA7VGeNE4fvzIolfxU+6mDDbCLtGQdsgmG5kxHlrWpIkaDUk6BksPrpM3qYVkWTJ2aTHUTRACUboM0Gr5GtSCmAe5XKbbBjQlp1AbI324+O5vUDZ7IdbkrMIzr2Rj7ZkDeOO8ArqnWFMqZBMJYpTc9CKI0dF/ImyiA4aO813kvwr577QaW6aDmoDayCggY9Q4CtRgk1jYma6PePvHjO+Sh1IURXnLzBL0WJKe8ZKEuteuJGS9EMyaGWLRfkAvA+WumKXcPWxFk0IxlXLHOxZVGCaPDP39bd+HqCfyBeoJfq1taBn9rx2dg+S5DaHqtahZH0O5fdT2obuPwfTIcJPIRKE2dK4aKXz73sRbxX2YyVL9dFAqDl81E2l+o3Jx1GOWDaQSI6mQV34Lbwq17bQaW+inWdm5+sec75KHUhRFmSEaqXs7EpO5v8iGHmQnIFZR9wjNrvjuOjy/IR9PDRXhdisQnj4XcSSkV/KMDj3lLktHueu604IezbQJlDueovpbmnY8bBrB2kU5yGm4hkbCYQ7qK8etOj0USrD8uAx6al4OXmIJfpoL+LK2CyM+IYgJ6MBVFkDVX46LN9bhxY07sUt9ETdb1QhNXIzMYGaMKqhpQ2lpK7asy8OuRjm+aiTrpbAoBBqmbkJtDIelIjuZQVNTF4bkIROoftBy+Tqkp/llsTS/ElSTf/tYmh9XPUI2DE6g+bXjXgeHirJYbP/nPVhV9z5++tcqsx6VCLbttBpbPp44VNMlC/WP0HfJSFF84GEURVECItsBklP3yJfo62MHcXh4M9blFSA7QAVlfRf5krBLTO6hoRGg3HGXNNwh7d469SmSd+Vh2+50yAc7UHb2IW5bERBBtkvwEvm0gyj/ZD/2q7Zh68Z8ZPmp0F7fjJGR8Q5qoCg6gkMBj2Hr+qexxF8G1UAPOupr8LCXzcffhjooCgvWrsSO8AB4qcmhvIoKHD1yCfoVPLevDqH5kWWbt7cWfb3sbgFzL37/B51YY/N9FNaCn7Yo9F3yXIqi6AgBe1L3ZJE5+JcfLEbV73+LY/VjS3bh4eJCOeQJePJH30HSl29ib1GbwMsPCf1yAM2P8V+AF36yGX0H9+L9cp59era67Swa2+qHDeUnfJea4j2WoijaDNHYF9JR92SImZeFRKYNbV2D0PjPwLzclYjuuIW/NrppMLRhgIte1O40P/ISJy4O0Z0l+OCBhMFQdKFcoUK+7xKD2BzPpSiKHhCtHQ7CVLzf4U5COtYvjMJ0steAGepBU/UNvHekCDUC+6SttYmrnLCtv8L7Fe4XpO1L8yOveO6fws/3kr0F7iflhKFl9/HE+CGM87tEgqUHUxRFXzJzBRHBdFei4rmSrYLC0wwOV4COJ4d3gdEA5wmITiMJNYQqQBXwVAVE2YfoqeJRv6kCVAH3UoAGRPfqT+oNVYAqYIMCNCDaIB4tShWgCriXAqIERErdc69BQb2hCniqAqJsu6HUPU8dPtRvqoB7KSDKDJFS96QcFPYk3Xk2cU3KXqR1u4YCNgdEt6fuSd2PAhQ2+5LuUhHkwcQ1qbua1u/8CtgcEC11kT2UZWt8IlyGumepg5bm56Ow2Z10V4NqDyauWdp1NL/7KWD3gMhKSKl75g0kh5DuPJi4Zl6v0FzurIAoL1UmCyQZdY+wPVJzt2D7ihTEBWnR3VSFS6f/hnP3e/SnwJAZlTBBb7K14z7zkcjsTvVzHOnOU4lrPCOD3vIQBWwOiPak7s3ctBv/mA3cOP0RTrQAMUs24PHnnoX379/BqQZywoMQQY/AmrgvARKZ3al+DiTdeShxjXts0DueooDNAdGUUFJQ9xh/QqRbGYHGc2/i8GX9uYBVNe3wi34J63NScf5Q6eip0pwEPfaoZ67L2ah+jiTdeShxjWto0HTPUUCUgGgX6p6OSNeNkupHY4ekajpwv6YHW9NiMUNWSuCMUy9zCXoyc0hkU6snKVJR/RxIuvNQ4prJ7qWJHqWAKAHRHtQ9sh62qmOmEPQ4anE+qp8DSXceSlzjGBo02YMUEOUts12oe8pGKFTTkJxEQNzGDpKFITkxGMONjYTIZ1uvacwhkZloQjKqnyNJdx5KXDPRvTTJwxQQJSAaqXvmQHKspu4NlONz8uwwdn0Bdq1KxZzkNOTkF2BTtBIXLlaOUems7ECW1lZ8tx+zWKrf8jkk0M7BsjV6qh9flXqqX7yO6peWEIO4uGirqH4zWKpfxiykZCzC4pn+ZD48rCfdkWP043SIUD1Jbc3yNMyOj0F8YtIEYp6eNvcIUSzRj9iSkZyIlPQFWLskHn46dG8/evsZhCVnIj2CH6lqJK7VeRhxja+f6T3PUECUJTMrleTUPcIMrj17EO+oyLab3HwsCwJ6mipx9l2y7aZBBOaGE1L9HEK6I/Pv8Iw0xHZX4JiC5yWUZ3w/qJcepoDoJ2bbk7ondV85nOrnANIdvBM9lrgm9Xii9Tu/AqLNEI2uSkfdk1pMPhKZg2ZKdifdeSF2jecS16QeYbR+51dA9IBorctSk8eE63ceqt94De1LupNB68HENWvHLi3nPgqIvmS2WhqpyWNS12+147QgVYAq4CwKOM0MEZoBtDcNSKeL1PVLZzmtmSpAFbCTAqJsu7GTrbQZqgBVgCogqQI0IEoqL62cKkAVcCUFaEB0pd6itlIFqAKSKiBKQKTUPUn7iFZOFaAK2EkBUV6qUOqenXqLNkMVoApIqoAoM0RK3RvXR+TXJfO3kd9bLwsfO4RCd9ue9DxJx8xY5Zy+2ql9zmYoPZBTGnqDVwGbZ4imqHtXMuNNNsqyVHYkJuN47QPdb5+d7WL8YpH9d9uwMTMWoT5qdN48iv86UsZ/cIQ8Htu//w9YUPkX/PenNVARDMFM8lvgpJIvJrhnpOc9+PMl29w2Ub81dltTBmb6apuDYpTWwoulB24NRtNrn6BswJxjR8Rol9bh6grYHBAtFcBI3Wvo+xrsKTnOc8mRsJ6cdJOsxMkP94NgWuCjUmJQyEDtELqUbWjtGhg7uHZymVF63gmcvj8Icb+e1thtTRnilDm+TvbdIZ9HoGDpgUufxbYVV1BxXsndNw6xjzbqrArYPSCyQhipe8XNTc6jC1n+Jc8KxaOSj1FU2gCzf72sacUXB/6IifPBiW6N0vP+UI5ecaMhOTfXCrutKcO6ZIavTtOhBnrgyuVLkHjxb+CjRziNzdQQhysgSUB0Seoewx7Zz2BGzh7szWH7RY26U29gb1EHIlYUYM+mZIQHeEHd14aqa2fxl8IqdLGH0sqisOWfXsTSin34xWmFiZmIDBHpqYjuqcBRFoTFXgROH7d8C3auy0BCqA/Uve0oOX0QB2506meP8lBkrt+MzYtnIXYagx5FOc6dOI1LD03MLjnt1nNnTI4wzjK2+mqyNYPPY0TEiJAA8kR1CG3VN3Hh6xEkL5mH1Nhp8BpoQ1nxSRy+UId+9h8OIZ34KIkKDSg9kKc/6C2TCtgcEN2Husfqo0X7tSP4Y3GLLrAN97D8Fi16aq/jxAeXQVbFCJmdjac3P40nGl/D/hITAWqKzN6IT4iEVnEFxuMFZVEr8eyOFHQWHsXrld1ggiLg39lrWEr7IGnLbjy3sJMEwQ9wpMsfaesfw9Pf3oyOXx/HveEpDXDYbSrf+DQpfOVp00hEbCrEu0eaoA6Iw5rH85C/tRGXz5zFe2eGEZyWi/wtT2FL3es4WqMm/9bw6SRASSQBUUPpgTwdQm+ZUsDmgGiqUpek7hkcUfd1oKm5dcJMb6D5PkqaDRkaBxAz/yVkJcyArMSMpbUj6XmmOmdcmui+CrTH3h5S1qOimp1J1+NReAYyc5W4e/UeytlnFLXA7MXPICmRYCJq2sAEBiKQGUR5dQ1qFey/BOMesZhDSaT0QDN6hGYZr4AoAdEdqHvcw8Jyqt7EuhxIz+N2iuOOrb5yVGsyWYPuLjIr9g1EkA/JwJ7roelFJ3mZlezvpyuhrruOz6oy8OSel5Fw+zqKr9zEHUWf7h8rsyiJlB5oUnmayK2AKAHRHah7XBLJolfhuWeyoL12GgePK9CDCGQX7MQ8rgJT0h1Iz5tiC3+C7b7y1z/5rlrNTgvlkDE66Av5Tw02iSGfdYzFkRZcfPc3KJu9EGtyVuGZV7Kx9swBvHGezDAZGdnnqYFaw/OWitIDJ0tOPwsoIMrGbHeg7nHpZC1Vj/1S6y5H0vO4nOJIt9lXjnptStYOQ1l1DUf3vYm3ivswM3sxZhHollmUREoPtEl6TywsSkB0B+oeV+dbTNWbQrdzED1PFovt//L/8Iv8OWQOZt5lu6/mtWNuLll4Kvgog0KUREoPNFdpms+ogChLZrYyl6fucYwJjaIYB44FIz93K/Zk+0KmHkZ/Tzvq2gdMb7DWduL6Z5cx96mleCKrHOUnG+AQeh5ZLnp7a9HX22faThP+iuGr2fs3TbQ/OUkeFIUFa1diR3gAvNTkAGEF2bp05BLIC2Ry9ePrYwdxeHgz1uUVIDtABWV9F1l0a6HVraIpPXCynvSzsAKiIwTcibonLJ+ZORxAz2P8F+CFn2xG38G9eL9cBEyrma46MtsESmJTPKUHOrIzXLRt0WaIRv9dl7onYQ/anZ4HeBHAfXRnCT544K7BkI+SyCA2h9IDJRzRblu16AHRWqWEqXi/wvsV1i/IpK5fyG/70vMA1f1T+Ple8h7WesmEXJpw3+76Mn4IS0jH+oVRmE727TBDPWiqvoH3jhShZoQES0oPtKj/aGa9AqIvma0WVmoqntT1W+24mxSk+rpJR3q2G84TED27H6j3VAGqgBMoIMq2Gyfwg5pAFaAKUAVsVoAGRJslpBVQBagC7qIADYju0pPUD6oAVcBmBUQJiJS6Z3M/0AqoAlQBJ1BAlG03lLrnBD1JTaAKUAVsVkCUGSKl7tncDyJV4IZkP5GUcc1qKD3Q3v1mc0A0Rd3jcsJI3UsJCeXK4rh0lij3w/+Dn2yfBW97WSFym0ayX7Qfz5FY5vhmJPuFsQcV6i+W0re64AX87D/+Ha/98if42c50+PPVJbJvfE2N3nNEm2YZZm0mAz0wfyPS/A2nJ1lbFS1nlgKiLJnNasmQyWmpe44gyonZprOR/cT0zdwB5og2zbXNqnyUHmiVbDYUsntAZG11SuqeI4hyIrbpdGQ/EX0ze3w7ok2zjbMyI6UHWimcdcUkCYguSd2bTM8jM66Fjz+JTelRCCeUOF8Mo7OxAkUnTuJCvQEuJQtCcvZGPLYiFQlh/mBUfXikbMbdcx/jk3vkeHx5Egp+/CziLv4Or13s0B3DxYStxPdfzYZi314cqYmYSOwjS9WMvO3YPD8eMWEB8B7pxd3jf8Cfb/SQuvhIfE5I9nNpPXm+TOPGBaUH8ujkordsDojuRd0b14tGSlzzORz4qBEqnzACRMrDE7s3o+V/jqNsyBsz83bjpbV+qLxQiPeqO0meb2Btfi7mRPqBYQOipYOCCURCRirC28+TMxjrMEB+H6xRsucZCpD4Bp2V7OeqevJ0HKUH8ojj+rdsDoimJHBl6t5kf4Zaa3HvPkuJq0FV93SkvbwAmXFylDelYsOqSLSefxv7Cpv1YHv5CNKHgKDJlVj0WYvB5gco1bWpv5iANKzPCkb5sX34W0m/LtA+PBaK9H/NxcLEk7hXGYywUBl6arphPOyLj1gnXJ9pg01R+kzn5E51CT3LDfxsbjcoPZBHG1e+JUpAdG/q3lj3ajva0aH1R2AAA9mMWMT5dKGkUqkPhhKOAllEDGJ8fBG+81X8Ot/YELFBroVqmi8BMrkS2c8V9ByxYHZP6YESDn27Vy1KQHRn6t74HtFqCOWNhB8Z+6rcQIrT6s+r5+g4LUgRyOUyHUXO4iX0WOwjhXtw/cP9KNSfn2+4o8VQN4syCMAwmRp6ebM7Qg0XL7GONYavPvtsi3JePTm6kyOZ0gM5hHHBZJv3IbI+uzN1j6tPNW0taFGHYNbM0LEgNDmztg/dfQymR4bDln952Laa1YGIi5ChrbUNLaP/taNzkERcFyL7TZbI+Nmp9OQy0pZ0Sg+0RT27lRUlILozdY+rJ7T95bhI3v7O3LgTu1alI2V2CpavW4XM4HEbaDVtKC1thf/8POxak4G05FlITY5CoIV7bLV9ZSi69ghRuQX49oYFyEhOREr6AqxdEg8/XV2uQ/ZzDT25rLQundIDrdPNEaVsmbhMsNddqXucnaIdRPkn+7FftQ1bN+Yjy0+F9vpmjIyMXxhroCg6gkMBj2Hr+qexxF8G1UAPOupr8LDXkgX0EKpOvod3+jZh67JteD7PFxjsQuPdQty52YBB8vrFVch+rqEnp5VW3aD0QKtkc0gh0U/M9mjqnjwBT/7oO0j68k3sLWobfUtsl551R7KfI/W0S6eZboTSA03rYo9U0WaIRmMpdc8e3WaiDUr2MyGKKyRReqAz9ZLoAdFa56Smtkldv7V+i1nO3cl+YmrFVZfdxwmlB3J1hUPSRV8yW+2F1NQ2qeu32nFa0KkUoOPEqbrD3sY4T0C0t+e0PaoAVYAqMEkBUbbdUFWpAlQBqoA7KEADojv0IvWBKkAVEEUBGhBFkZFWQhWgCriDAqIERErdc4ehQH2gClAFRNl2Q6l7dCBRBagC7qCAKDNESt2bNBTIr0bmbyvArmXh4BSYCUbK6o3YkBY06XAIe5LzKNXNHb7E1AfxFOD8vprbhNtQ9/gctpTmZoJaN6V62XRkrl6FhdHkdO1xN+1LzktFUEQKtlKq25TuoQmeqYAoS2ZLpHNa6h6fE/aiuTmAnFfd3oerS5/FthVXUHFead/fX/NpTu9RBRyggM0zRGtsNlL3rCnrkDIGmts7XxhQARIZMUrOu1QOiw7DMccesoxPnhWKRyXFKCqtRV19LaqaCK/FQHWLXb4EiXJzKqJ5qALuq4AkM0TXo+55I7Pgh3gh9ir++/UiNOlgJuRH9xu/ix8tr8Wbv7qB2S+/iKUV+/CL0wbWCS8Fz8SA8QrHoi3kqLDFiZjhqz8qTEVI72P0DseR85Sl5WjKW4z5cYWorlebMJ4mUQU8QwGbA6J7UPdGUF1ZB9XCWZgdfAFNXeSsQiYAiYnhUNUWoYHEiNkTxoMABW940uAhP+BPe3w3vrVoCNfO/BUftWgQkrgImxKYcQHRgeS89oeo789FQjx5wVPfZT3qwDO+M9RLN1bA5oBoShvXo+4R0t39CtxXP4bMlEAUf0UQol5xSI7TovZ0PTmPOnCCm5ZS69j8OUumoe7Mb3H40iN9wKkZQNzSFCQZa5Y5kJxHjg7r6ALSw0LIvLhLcmiWqTFD06gCzqCAKAHRHah72r5K3Lq/DQWZsxF0/Tb6Y2Zilk8TvqhiucgTA6IwBW9i18oiohAl78LdOr7ZlwPJedoRDJNZrTeBVNGLKuDJCogSEN2CuqftR+ntKozsnIe5QSWonZOM0JZSlLHL58mXDqFnAbVOVwVDQH18MBUSlBxFzmO84ENioUolzCOeLAX9TBVwJwVEecvsHtQ9Lfrv3cCt/kRkLZ6FzLQINH9dBqWRFj+u1wUpeIa8xgCoUTZCoQrBnDkR4HyR60hyHnkDPT0E6HzURbfduNO3m/pisQKiBES3oe6panH5egcS1uzA2thW3P663WSAEKTgkdlmbz+DsORMpEcQINRAOc5dUiJq3Tfx3MYFSE9OxJyUmYgkt8YuB5HziAGysDgkBHajrqGHvlCx+CtEC7iTAqIsmVlB3IO6p4bi6hVUrt6BOQ2XcMPU9FDX+wIUPG0nrn92GXOfWoonsspRfrIBdYX78fv+PGxbuRUvbPSDbGQAnco63GkdNAQhB5HzyGuU8Iw0xHZX4JiCbrlxpy839cVyBUQ/MdvlqXtehJz3z99E+GdvYN8t8rbZck2tL+EAch68E/HUD3cj6au38b+ft5qcEVvvEC1JFXAtBUSbIRrddk3qnjfCYiMJ9N0HM1dtw/Khq3jzrp2DISug3cl5XohdswkrZSV49wr92Z5rfXWptVIoIHpAtNZIqWln/PUPoqFNhtjparTX3MT7By7qNmM74rIvOU8GbWc1zn50GWUDdp0LO0Ja2iZVQFAB0ZfMgi1yZZCadiZ1/Vx+0XSqAFXAZRT4/xUhZXMksaLjAAAAAElFTkSuQmCC;" vertex="1" parent="W3-m2wMLbWgh8ah4GSNx-10">
          <mxGeometry x="20" y="40" width="242.18" height="148" as="geometry" />
        </mxCell>
        <mxCell id="W3-m2wMLbWgh8ah4GSNx-12" value="" style="shape=image;verticalLabelPosition=bottom;labelBackgroundColor=default;verticalAlign=top;aspect=fixed;imageAspect=0;image=data:image/png,iVBORw0KGgoAAAANSUhEUgAAALIAAABDCAYAAAA4RF/UAAAABHNCSVQICAgIfAhkiAAAEEFJREFUeF7tXQlwU9e5/nRled+QN2zHu/EONvtmbDaHNS8NENJmSts3KZP2Zd7rm7y00zZtX968eel02pS206STpHSBQJLySiBlSUIIYEhCEsJaY9mYxcbCq2zLtizLWm7PlbErpKtzpSvJVsw5M56x7jnnX77z37Pd+92jmFe5ngdLDIEvOALcF9x+Zj5DwI4AC2QWCFMCARbIU6IZmRMskFkMTAkEQnz1IjIkBHMSk5AfG4/4sHC7uD7TMJr6+3C+uwtDFouvKlh9hoAkAj71yAVx8dheVIYlKWlIjohEKMfZ/4T/hWtCnlCGJX8gEIrMxauwLCMCCl/EKeIwa/1WPDY/YQIXSCqkVKzAyhmRvtlO8Vt2IAsB+nB2HsKUSrfihTyhzJQLZkUYErIKUJgSFrCGcQZVlbEMj28sw/RwH3dLFdHIKilCrjp0XIUiPA2VW7+J5/7nJ/jVT5/Fc48WI8LZAMffXvvPIySxAOu2rEZRhE+3oVurZAVyBJlOrMvI9qgRBbOFskKdKZO4dKza9mWsL4yaGJcUsZhXsxAxV4/jaNMwfAxlJ5uVyFy5BZvyDDj9l13Y8bs92HOmBcM0z7z23wJt7Xv4hC/H+kWJARkJZAXyXDInpvXEzhgIZYU6LMlDgEuejcr8IZz7UINB/0YxQKYaeTnx6L1yBifrbqG55RautRn8fLMQv0eacfqTDqQtmIts94O4PIBILVndpLCwc0xbX/xfqKNiMGgyYkl+KS40N0FJ5spfq6yx/xaSUOdMe9u9hpJhrqRmI9bMykCqOhIqyyAuH3wFf/p8ALwyHqUr12DNnBykxSowoNXg+NtH8WHr3R6Ji0be0tXYsKgQmWoybzQb0NvVjsvH38Lfrg6S+rnY+oOvIr32t/hVbY+9YRTqxfjOM0uh3bkD+65bAZoOMnymL1iLR1eUIDM+FNZBHa4cfQ27P++728hK5Gz8T/x6o+CSBRf3/BR/uGS+1z/nX8TmGVVr8dDiAqTHcBjR38GpN3bhnRYlRReHxOJCTB9owP7bdxfOUrbR/HK2SaFCqEqBpKrt2FElZFrRfORF7DjZDZtz2Xt+i/h/maP4YUNXnQZtNXMwK/0YbrQQ/P2YZAVyXFiYiwlPr92CcJUKz7zxCl74yrdgJrsVPzv8xnggi9WBIgqZJYVI0J3A7gPNMHIRsHUJvUEoctduw79W9JHgfR379BEoWrkBm7++Bj0vHMTVYRWyarbh29XhaDx1DH++0Qdz6AOo3rIcM5LDoRAC2cVC5wt0HZr4xfjqwwXoO7Yfv2nshyI6ERF9jnKt0J56nQS2nujiMdwntTujQubqbXhyGYdLxw7icKsRIbGRMPZYwaVUUnSpkJGZDF77MbR3255LodlG9+vqiDMOwm8euk/34fdnOuzBOzLQKxHEQh1X/7mUaoofgE3Xipah5cjMiIaiRcDNf0lWIDurV3JKFEx/YPxyhnp0GqE3GpyLivwmQdB+HXVN2nHwFJFFWLkwBpoDO/HOlSG7w60H4lH8veWoyD6M+uZCrFqSjM4TL2PnsXYCKUlKC4pNQLSIBrFLUjoazFGIUgxDc+MmbmmF1ncaTciVkQEd2tpHe3sxHfdciyA2L01C2/GXsKf23t5OmUzRxcVAHc9h4GY/xvp7RZT78lJ+XW0Ut9Rq6CG+dHoQwP+s7+y/kmKXvRavR48eKFbHkXmyfrTdxM3x+qqsQNabTPYtNqnkeMcJdTxNXGIqUkPJzsCjz+CFLWO1FOCUPMyxYVAmpSE9VI8rjV2ywZDSYTt/Du9fK8Ej259C5sVzOPPxeVzSGrxqaEd/BZsfCO3HlRuuvZ21maZLGPrJ5MVsHu/BaOWl/ArMnsGopzS77CV4C0ZIn6AiI7e/k6xAFh52OAayjafPpgSjhToeJwFtfgDnyCr6mNZRNg9TvxF8ir0AeJ42OPGwkapKJWffXXEpKaXDYkDtH3+N+vwKLKtagsf/fSmq392NF09oR3tGF4ES3ikoIWTpoOgijU+64hDS+OMSKOVtUn7BT/v6Yv5T7LKPJooQ+01pNktNwySwFMmWtWvxOXliZ7L+c7L+5r/9aFz0X5768fj/Y9eFskIdT5OtuwPt1iikJ3Lo7uxGx/ifDn3DNgj5HdY45GTFu98C5A3oNygwLTlBdEUrpcNuKz+CrmufYv/Ol/C7MwZkLZ2DHPuK24wR0hYREZ7vI9u629FuiUVe7jTx7Sd3umwD6O2zISY+9l4/3JT3yC/igYJ2Y0k2FMV/N3bZRZIdkmlx5Mlvr172yObONGVa5ozn3GW6u24hXV0veQxdGK92H0h3Kws37qGWm+gwDrmKI7sW+QvnIU13AaebyE7FWAlzLwaiS7G8shRpZJ5qIovAadOzUJYVio72fjLM9sEQN4vMkwsQPzKEkTA18mYvwOLCRFhufIazt8i8mjdiOKYYVYvykWAexIgqGonpeSgvUUN3/izqOnqoOmwJhaicmUSeVKoQpU5FYVkZZihbUHv2JvrJEBmduwCLCmIx3DOE0KQcZEXq0a6n9DTE5n7i06qqmUghtpmVkVCnZSMtRIfusBkUXTZY1EWoLLZB83ETeglIHM22EQnsyO2QXrEI5WoTWm9q0W0MF28DLg0bn34a30i/g5NXndcB4v53huRR/CB2J5ZhbVUCbn5wGhq9WJfuGiKeXpE1tRCEN+r7cPDWdfvDDnd7ykJPfPT2LXtZ75IJ1w7/Ga8aHsS6+evxRA3ZJRnW487lY7h0/jaGebII+9su7DKvx7rVW7Aw3AxdSzssFkdwbNCe3Ic9kRuwbuVmzI3gYDYOoIfcVK32zVi6Dmt0CsqrF+PhhEiEWI3Qacn2174PMTrTGcKFI4eQ91gN1m8rhnK4B/XvteJiM5n2uHXUhKYju/Dq0IPkocBDeGKNCrbBblw8fAMNPTRdNnTXa9BRU4GZd7etlFTb6H4N83049/5HKNs0D19aqIHmqOg2hn0aoFLxMAyK7Cnz4v7X3aH5wSGBPFFM62/AgbHtF7dYeZ+h8JUhEjQvDSkz8ch3v4Hcsy95sAfqPVCTWoMMyUueeAobhg7i+dfrYHB/t/jNTEVEOb757BoYXtuBvRqJ/XFPtKqysenpbcj97GX88gPvdkc8ES+7Rx4TLrzdJjzocHnY4Yl2VsYzBMi21WfvfYbqJ1dhbW4T9l83UXp+z0RKlQpJT8f0vit4/bofgphMZ9KWPYjF3BX88eMuv8+PBV98DmQpQO6XfEX0XHzrhw+jWAxRMhSf/cPPsbdB/tMsc8sp7D0CZFtkrc+9bgZz0xH83w4ONvkmO+jkwPfdwHt//Qj1xsAMJz5PLbxGaKpWIAvShJQ4hIvtspHtyaGeLrJADkwjTlVIvfFLrP/wpj4rO4aAjSwI24wMj0lCYGLGqUlyjqm9fxBggXz/tPWU9pQF8pRu3vvHORbI909bT2lPfV7sBc0DkSndTMw5KQR86pEZi1oKXsd8xoL2Bi1vy8oO5KBgUXvN5vUWHv+VZyxo/2EpJklWIAcNi9prNq8YBBNwjbGgAw6yrEBmLGrv2oWxoL3DS05pWYs9v7GoBYtpjF/Sk1U89AgeLE5BQlwkwjCCvjsNOPn2YZxqGfu+gwibV2AzU+VS2Ns0FBkLOmAsaBrsnuTJCmQxRrQsFrUUW3okAtNzsxDTfhy7/3qHMKXVKF1egy9tW4OOXxxEvf09dlc2LyTlumNv0yBjLOhAsqBpyHuSJyuQnQXLZVF7yvg1dd7CVTvL+iau9U9D0VPlKE1XEjb1qCXObF7P5Lqyt539uuc3Y0EHlAVNxd6DTFmB7C8WtRzGL9+jQw8fgahIsdfMRj2WI1cKK8aCJggFkAUthb9UvqxA9huLWpLx6/qVCp7wBa2EKciNxbHYm5Ey5EoBRdia7otQ2cOMBe0eOP/lyNq18BeL2lPGr3t3xdm8vst11chY0ASTALKgXRH37oqsQDYSepNAKhXrDJ3VC2WEskId58Qb6nHy016kLN+Kr68qR0leNgqKy1E9N0P8BXVnATYdWtssSJpdhaqSHBSUzMacLPJBVF/lOushv3mDBieIremrv4JtK2babS0sJYTQVJWd1bxsQRHyM1KRkZ2L/GRiw9AQhuwAjaDldhcUhDpEpvX2RCsviQlhmwwOKaDOK0VxIuVzBAIL+r/+G89vmQGXbwa6wU1J9YPYrU5HZlQ/mm87MN5FsJqMS7KmFoKh/mFRSzB+pRBxw+a92NxFZ2FLyRXNZyzoQLKgRSH34qLPVCf20pAHaDMWtAcg+VZEdo88ppaxqD1oAMaC9gAk34r43CP7pj54ageaBS08pMlaWo3s1jOopX7IxX+YcOS7dzar9Hf5pDWGInVOFcoGP8L7jaNfR5WuM7ElWCCP4c1Y0BMbeX7W5vPUws/2TJ44xoKePOz9oFnW9psf9DIRDAG/IsAC2a9wMmGThQAL5MlCnun1KwIskP0KJxM2WQj4vNhjD0Qmq+mYXkcEfOqRGYtagJKxo4PhlpIdyEHBolZmkOMBvo9nN+bAfk7QJLCqGTs6GMKYvNAkx4ygYVHzJui7utGpN45+PHqiWdWMHS0nfAJSR1YgBw2L2taJ07t/j1dP3z00MiAQuRfK2NHusZnoHFmLvYlhUZsQXbYJzzyeiguvvIIDt8ihLcokrNi+HSsH3sbP9/4d/YoUrP2PJzGvYSeePzp2cqobVjUNWcaODlp2NK3ZHPNkBfKEsajr3sH+y9/G1zZV49JvP4BhwUasTWzCm3vryBFhxA1R9pEYq5oGB2NHBzM7mtZyPgeys/CAsag1Blw+dASXvrMZj22OgrEoEfX7/x8X7FHsPjmzqt2XJDmMHR3U7Ghq2zlkyuqRJ45FbQE/WI8DR67hB1+ejYTGt/Gny/6l2TB2NImGIGZHBzSQJ45FTdxQhCM9ZzpUwqHsGaWYqb6AMzrKO7b0ztoVF8aODugZ0a6AB+aKrF2LiWNRKxBVtAZbKwx49+WdONT2ADaSEzuT3FotzqqmQcfY0UJnEbgzomnY+zPPbUjQlEwUi1oRnosN/1KGodpDOKHtQO1bJ9GWuQqb57s5TN0NO1h0TXjXQcaODm52NC0OHfNkHaouCNCRQ9W7h43IiYlDCCd+PwhnUQsHqrs/i9qKniYNWvgUzJy/ENVL52FeURpiTFpc0eiQsGIrHk1twGtvnkc3ObiQN7ShPXwWNixNxJ1zGnRao5wOBDejQ6tH7IzZqF62APMLk6HqbMTFVho9h9hwvQEtIOcoL1yM6iVzMDsvEXzbVWis+diwYTVWkzOpK2fnQ21sxNG3PkCd/fB0HsbhaJRXlUHZeA4N5JDwkORSSnmar53kfG0TdHoVcirmoVx1HR82WZEnduA8Nw2lyyoQ3/LJvQfR21tV3P+/m7Kx3q0fHBLnkzO/k2/i8LuN6KXM2jwNqsko5zPV6b5+aYixoycjZkV1ytq1cJR0X7OoGTtaNKgm46LPPfJkGO2NTsaOpqEV/OxomvWOeVM+kMHY0Z7Gwhe6nM9Ti6D3nrGjg76J/GHgPwAu9Y3H5drxlwAAAABJRU5ErkJggg==;" vertex="1" parent="1">
          <mxGeometry x="170" y="460" width="132.84" height="50" as="geometry" />
        </mxCell>
        <mxCell id="W3-m2wMLbWgh8ah4GSNx-13" style="edgeStyle=orthogonalEdgeStyle;rounded=0;orthogonalLoop=1;jettySize=auto;html=1;exitX=0;exitY=0.25;exitDx=0;exitDy=0;entryX=0;entryY=0.5;entryDx=0;entryDy=0;" edge="1" parent="1" source="W3-m2wMLbWgh8ah4GSNx-9" target="W3-m2wMLbWgh8ah4GSNx-12">
          <mxGeometry relative="1" as="geometry" />
        </mxCell>
      </root>
    </mxGraphModel>
  </diagram>
</mxfile>
